<svg width="24" height="24" viewBox="0 0 24 24" fill="none" xmlns="http://www.w3.org/2000/svg">
  <g clip-path="url(#clip0_8_2)">
    <circle cx="12" cy="12" r="12" fill="#0C0A09" />
    <path
      d="M18.364 18.3639C19.6227 17.1052 20.4798 15.5016 20.8271 13.7558C21.1743 12.0099 20.9961 10.2004 20.3149 8.55582C19.6337 6.9113 18.4802 5.50569 17.0001 4.51677C15.5201 3.52784 13.78 3 12 3C10.22 3 8.47992 3.52784 6.99988 4.51677C5.51984 5.50569 4.36629 6.9113 3.6851 8.55582C3.00391 10.2004 2.82567 12.0099 3.17293 13.7558C3.52019 15.5016 4.37734 17.1052 5.636 18.3639"
      stroke="#FAFAF9" stroke-width="2" stroke-linecap="round" stroke-linejoin="round" />
    <path
      d="M15.536 15.536C16.2351 14.8367 16.7112 13.9458 16.904 12.9759C17.0968 12.0061 16.9978 11.0008 16.6193 10.0873C16.2408 9.1737 15.5999 8.39289 14.7777 7.84354C13.9555 7.29419 12.9889 7.00098 12 7.00098C11.0112 7.00098 10.0445 7.29419 9.22229 7.84354C8.40007 8.39289 7.75921 9.1737 7.38073 10.0873C7.00225 11.0008 6.90316 12.0061 7.09598 12.9759C7.2888 13.9458 7.76487 14.8367 8.464 15.536"
      stroke="#FAFAF9" stroke-width="2" stroke-linecap="round" stroke-linejoin="round" />
    <path d="M12 17L9 20H15L12 17Z" fill="#FAFAF9" stroke="#FAFAF9" stroke-width="2"
      stroke-linecap="round" stroke-linejoin="round" />
    <path
      d="M12 10.5C11.625 11.625 11.625 11.625 10.5 12C11.625 12.375 11.625 12.375 12 13.5C12.375 12.375 12.375 12.375 13.5 12C12.375 11.625 12.375 11.625 12 10.5Z"
      fill="white" stroke="#FAFAF9" stroke-width="2" stroke-linejoin="round" />
  </g>
  <defs>
    <clipPath id="clip0_8_2">
      <rect width="24" height="24" fill="white" />
    </clipPath>
  </defs>
</svg>