<svg width="14" height="14" viewBox="0 0 14 14" fill="none" xmlns="http://www.w3.org/2000/svg">
  <circle cx="7" cy="7" r="7" fill="black" />
  <path
    d="M7 5.5C6.625 6.625 6.625 6.625 5.5 7C6.625 7.375 6.625 7.375 7 8.5C7.375 7.375 7.375 7.375 8.5 7C7.375 6.625 7.375 6.625 7 5.5Z"
    fill="white" stroke="white" stroke-linejoin="round" />
  <path
    d="M4.52513 9.47487C4.03564 8.98539 3.7023 8.36175 3.56725 7.68282C3.4322 7.00388 3.50152 6.30015 3.76642 5.66061C4.03133 5.02107 4.47993 4.47444 5.05551 4.08986C5.63108 3.70527 6.30777 3.5 7 3.5C7.69224 3.5 8.36893 3.70527 8.9445 4.08986C9.52007 4.47444 9.96867 5.02107 10.2336 5.66061C10.4985 6.30015 10.5678 7.00388 10.4327 7.68282C10.2977 8.36175 9.96436 8.98539 9.47487 9.47487"
    stroke="white" stroke-linecap="round" />
  <path
    d="M3.11092 10.8891C2.34173 10.1199 1.8179 9.13989 1.60568 8.073C1.39346 7.0061 1.50238 5.90023 1.91867 4.89524C2.33495 3.89025 3.0399 3.03126 3.94437 2.42692C4.84884 1.82257 5.91221 1.5 7 1.5C8.0878 1.5 9.15117 1.82257 10.0556 2.42692C10.9601 3.03126 11.6651 3.89025 12.0813 4.89524C12.4976 5.90023 12.6065 7.0061 12.3943 8.073C12.1821 9.13989 11.6583 10.1199 10.8891 10.8891"
    stroke="white" stroke-linecap="round" />
  <path d="M7 10.5L5 12.5H9L7 10.5Z" fill="white" stroke="white" stroke-linecap="round"
    stroke-linejoin="round" />
</svg>